<?xml version="1.0" encoding="UTF-8" standalone="no"?>
<!-- Created with Inkscape (http://www.inkscape.org/) -->

<svg
   version="1.1"
   id="svg2"
   width="608"
   height="361.33334"
   viewBox="0 0 608 361.33334"
   sodipodi:docname="MV logo (final).eps"
   xmlns:inkscape="http://www.inkscape.org/namespaces/inkscape"
   xmlns:sodipodi="http://sodipodi.sourceforge.net/DTD/sodipodi-0.dtd"
   xmlns="http://www.w3.org/2000/svg"
   xmlns:svg="http://www.w3.org/2000/svg">
  <defs
     id="defs6" />
  <sodipodi:namedview
     id="namedview4"
     pagecolor="#ffffff"
     bordercolor="#000000"
     borderopacity="0.25"
     inkscape:showpageshadow="2"
     inkscape:pageopacity="0.0"
     inkscape:pagecheckerboard="0"
     inkscape:deskcolor="#d1d1d1" />
  <g
     id="g8"
     inkscape:groupmode="layer"
     inkscape:label="ink_ext_XXXXXX"
     transform="matrix(1.3333333,0,0,-1.3333333,0,361.33333)">
    <g
       id="g10"
       transform="scale(0.1)">
      <path
         d="M 516.668,2700 379.996,2076.67 h 120 l -200,-770 H 136.668 L 0,690 h 853.332 l 153.338,603.34 186.66,-526.668 340,389.998 -110,-463.33 h 760 L 2060,0 3160,16.6719 4010,1406.67 h 150 L 4560,2093.33 3376.66,2080 3160,1733.33 l 73.33,410 -620,-10 150,573.34 -790,3.33 L 1470,2066.67 1273.33,2703.33 516.668,2700"
         style="fill:#dce91f;fill-opacity:1;fill-rule:nonzero;stroke:none"
         id="path12" />
      <path
         d="m 563.332,2636.66 -103.336,-500 116.672,-3.33 -243.336,-880 L 176.668,1250 73.332,746.672 796.668,740 1000,1473.33 1216.67,880 l 430,500 -150,-640 710,-3.328 99.99,526.658 h -83.33 l 23.34,130 h 119.99 L 2130,63.332 3133.33,70 3976.66,1463.33 h 150 l 330,563.33 -1043.33,-3.33 -350,-556.67 h 153.33 L 2970,1063.33 3166.66,2080 l -570,-10 c -57.86,-74.53 -131.73,-130.58 -220,-170 l 53.34,223.33 h 123.33 l 136.67,523.33 -690,-3.33 -553.33,-690 -213.34,693.33 -669.998,-10"
         style="fill:#100f0d;fill-opacity:1;fill-rule:nonzero;stroke:none"
         id="path14" />
      <path
         d="m 648.332,2531.67 -62.5,-302.5 h 122.5 l -292.5,-1072.5 -155,-5 -57.5,-302.498 522.5,-5 260,984.998 272.498,-752.5 587.5,697.5 -220,-927.498 492.5,-7.5 60,319.998 -92.5,-2.5 55,232.5 -125,5 100,457.5 142.5,5 92.5,375 h 117.5 l 87.5,317.5 -500,7.5 -655,-830 -245,805 H 648.332"
         style="fill:#ffffff;fill-opacity:1;fill-rule:nonzero;stroke:none"
         id="path16" />
      <path
         d="m 2190.83,1749.17 c 215.88,22.35 359.93,106.12 460,227.5 l 382.5,2.5 -265,-1447.498 642.5,1039.998 -165,-2.5 220,352.5 812.5,2.5 -215,-365 -155,2.5 -835,-1377.498 -822.5,-17.5 235,1334.998 -340,-2.5 45,250"
         style="fill:#ffffff;fill-opacity:1;fill-rule:nonzero;stroke:none"
         id="path18" />
    </g>
  </g>
</svg>
